<svg width="21" height="21" viewBox="0 0 21 21" fill="none" xmlns="http://www.w3.org/2000/svg">
<path d="M10.4895 0C4.6935 0 0 4.704 0 10.5C0 16.296 4.6935 21 10.4895 21C16.296 21 21 16.296 21 10.5C21 4.704 16.296 0 10.4895 0ZM10.5 18.9C5.859 18.9 2.1 15.141 2.1 10.5C2.1 5.859 5.859 2.1 10.5 2.1C15.141 2.1 18.9 5.859 18.9 10.5C18.9 15.141 15.141 18.9 10.5 18.9ZM10.269 5.25H10.206C9.786 5.25 9.45 5.586 9.45 6.006V10.962C9.45 11.3295 9.639 11.676 9.9645 11.865L14.322 14.4795C14.679 14.6895 15.141 14.5845 15.351 14.2275C15.4037 14.1425 15.4388 14.0477 15.4541 13.9489C15.4695 13.85 15.4647 13.7491 15.4403 13.6521C15.4158 13.5551 15.372 13.464 15.3116 13.3843C15.2511 13.3045 15.1753 13.2378 15.0885 13.188L11.025 10.773V6.006C11.025 5.586 10.689 5.25 10.269 5.25Z" fill="#D53333"/>
</svg>
