<svg width="23" height="21" viewBox="0 0 23 21" fill="none" xmlns="http://www.w3.org/2000/svg">
<path d="M22.2497 19.6874C20.6622 16.9957 18.1211 14.9756 15.1137 14.0141C16.5552 13.1704 17.6754 11.8842 18.3023 10.3531C18.9291 8.82202 19.0278 7.13072 18.5833 5.53903C18.1388 3.94734 17.1757 2.54331 15.8418 1.54264C14.5079 0.541966 12.8772 0 11.2 0C9.52284 0 7.89206 0.541966 6.5582 1.54264C5.22434 2.54331 4.26117 3.94734 3.81667 5.53903C3.37216 7.13072 3.47091 8.82202 4.09773 10.3531C4.72456 11.8842 5.8448 13.1704 7.28634 14.0141C4.27888 14.9756 1.73781 16.9957 0.150294 19.6874C0.0837078 19.7825 0.0378208 19.8901 0.0155161 20.0034C-0.00678849 20.1168 -0.00502864 20.2335 0.020685 20.3461C0.0463987 20.4588 0.0955105 20.565 0.164934 20.6581C0.234358 20.7512 0.322593 20.8292 0.424096 20.8871C0.525598 20.945 0.638174 20.9816 0.754748 20.9946C0.871323 21.0077 0.989377 20.9968 1.10149 20.9628C1.21361 20.9288 1.31736 20.8723 1.40623 20.7969C1.49511 20.7215 1.56718 20.6289 1.61792 20.5248C2.59036 18.8709 3.98758 17.4978 5.66941 16.5432C7.35125 15.5887 9.25856 15.0862 11.2 15.0862C13.1414 15.0862 15.0488 15.5887 16.7306 16.5432C18.4124 17.4978 19.8096 18.8709 20.7821 20.5248C20.8328 20.6289 20.9049 20.7215 20.9938 20.7969C21.0826 20.8723 21.1864 20.9288 21.2985 20.9628C21.4106 20.9968 21.5287 21.0077 21.6453 20.9946C21.7618 20.9816 21.8744 20.945 21.9759 20.8871C22.0774 20.8292 22.1656 20.7512 22.2351 20.6581C22.3045 20.565 22.3536 20.4588 22.3793 20.3461C22.405 20.2335 22.4068 20.1168 22.3845 20.0034C22.3622 19.8901 22.3163 19.7825 22.2497 19.6874ZM5.24443 7.54534C5.24443 6.38601 5.59372 5.25272 6.24813 4.28877C6.90253 3.32482 7.83266 2.57352 8.9209 2.12986C10.0091 1.6862 11.2066 1.57012 12.3619 1.7963C13.5171 2.02247 14.5783 2.58074 15.4112 3.40051C16.2441 4.22028 16.8113 5.26473 17.0411 6.40178C17.2709 7.53884 17.153 8.71742 16.7022 9.7885C16.2515 10.8596 15.4881 11.7751 14.5087 12.4191C13.5293 13.0632 12.3779 13.407 11.2 13.407C9.62049 13.407 8.10566 12.7894 6.98878 11.6902C5.87189 10.5909 5.24443 9.09995 5.24443 7.54534Z" fill="#7F008A"/>
</svg>
