<svg width="23" height="21" viewBox="0 0 23 21" fill="none" xmlns="http://www.w3.org/2000/svg">
<path d="M9.45 21C8.1375 21 6.9083 20.755 5.7624 20.265C4.6158 19.775 3.61375 19.1012 2.75625 18.2437C1.89875 17.3862 1.225 16.3842 0.735 15.2376C0.245 14.0917 0 12.8625 0 11.55C0 8.9075 0.91455 6.6717 2.74365 4.8426C4.57205 3.0142 6.8075 2.1 9.45 2.1C9.6775 2.1 9.89625 2.10875 10.1062 2.12625C10.3162 2.14375 10.5262 2.17 10.7362 2.205C10.9637 2.24 11.1562 2.35795 11.3137 2.55885C11.4712 2.76045 11.55 2.98375 11.55 3.22875C11.55 3.57875 11.432 3.84545 11.1961 4.02885C10.9595 4.21295 10.6575 4.2875 10.29 4.2525C10.15 4.235 10.01 4.2217 9.87 4.2126C9.73 4.2042 9.59 4.2 9.45 4.2C7.385 4.2 5.64375 4.90875 4.22625 6.32625C2.80875 7.74375 2.1 9.485 2.1 11.55C2.1 13.615 2.80875 15.3562 4.22625 16.7738C5.64375 18.1912 7.385 18.9 9.45 18.9C11.4975 18.9 13.2258 18.2 14.6349 16.8C16.0433 15.4 16.765 13.6762 16.8 11.6287C16.8 11.3312 16.9008 11.0687 17.1024 10.8412C17.3033 10.6137 17.5525 10.5 17.85 10.5C18.13 10.5 18.375 10.6004 18.585 10.8013C18.795 11.0029 18.9 11.235 18.9 11.4975V11.55C18.9 14.1925 17.9854 16.4279 16.1563 18.2563C14.3279 20.0854 12.0925 21 9.45 21ZM17.85 8.4C17.5525 8.4 17.3033 8.2992 17.1024 8.0976C16.9008 7.8967 16.8 7.6475 16.8 7.35V5.25H14.7C14.4025 5.25 14.1533 5.14955 13.9524 4.94865C13.7508 4.74705 13.65 4.4975 13.65 4.2C13.65 3.9025 13.7508 3.65295 13.9524 3.45135C14.1533 3.25045 14.4025 3.15 14.7 3.15H16.8V1.05C16.8 0.7525 16.9008 0.50295 17.1024 0.30135C17.3033 0.10045 17.5525 0 17.85 0C18.1475 0 18.3967 0.10045 18.5976 0.30135C18.7992 0.50295 18.9 0.7525 18.9 1.05V3.15H21C21.2975 3.15 21.5467 3.25045 21.7476 3.45135C21.9492 3.65295 22.05 3.9025 22.05 4.2C22.05 4.4975 21.9492 4.74705 21.7476 4.94865C21.5467 5.14955 21.2975 5.25 21 5.25H18.9V7.35C18.9 7.6475 18.7992 7.8967 18.5976 8.0976C18.3967 8.2992 18.1475 8.4 17.85 8.4ZM11.655 15.225L8.715 12.285C8.61 12.18 8.53125 12.0617 8.47875 11.9301C8.42625 11.7992 8.4 11.6637 8.4 11.5238V7.35C8.4 7.0525 8.5008 6.80295 8.7024 6.60135C8.9033 6.40045 9.1525 6.3 9.45 6.3C9.7475 6.3 9.99705 6.40045 10.1986 6.60135C10.3995 6.80295 10.5 7.0525 10.5 7.35V11.13L13.125 13.755C13.3175 13.9475 13.4137 14.1925 13.4137 14.49C13.4137 14.7875 13.3175 15.0325 13.125 15.225C12.9325 15.4175 12.6875 15.5137 12.39 15.5137C12.0925 15.5137 11.8475 15.4175 11.655 15.225Z" fill="#FFBF1C"/>
</svg>
